<svg xmlns="http://www.w3.org/2000/svg" width="1500" height="500" viewBox="0 0 1500 500">
<defs><linearGradient id="bg" x1="0" y1="0" x2="1" y2="1"><stop stop-color="#48a75b"/><stop offset=".58" stop-color="#d4f38a"/><stop offset="1" stop-color="#174d49"/></linearGradient><radialGradient id="halo"><stop stop-color="#fff" stop-opacity=".58"/><stop offset="1" stop-color="#fff" stop-opacity="0"/></radialGradient><pattern id="dots" width="16" height="16" patternUnits="userSpaceOnUse"><circle cx="3" cy="3" r="2" fill="#174d49" opacity=".28"/></pattern></defs>
<rect width="1500" height="500" fill="url(#bg)"/><path d="M0 0h1500v500H0Z" fill="url(#dots)"/>
<circle cx="930" cy="210" r="380" fill="url(#halo)" opacity=".38"/>
<g><path d="M930 250 1500 1500 1500 -100Z" transform="rotate(0.0 930 250)" fill="#d4f38a" opacity=".07"/><path d="M930 250 1500 1500 1500 -100Z" transform="rotate(21.176470588235293 930 250)" fill="#d4f38a" opacity=".07"/><path d="M930 250 1500 1500 1500 -100Z" transform="rotate(42.35294117647059 930 250)" fill="#d4f38a" opacity=".07"/><path d="M930 250 1500 1500 1500 -100Z" transform="rotate(63.529411764705884 930 250)" fill="#d4f38a" opacity=".07"/><path d="M930 250 1500 1500 1500 -100Z" transform="rotate(84.70588235294117 930 250)" fill="#d4f38a" opacity=".07"/><path d="M930 250 1500 1500 1500 -100Z" transform="rotate(105.88235294117646 930 250)" fill="#d4f38a" opacity=".07"/><path d="M930 250 1500 1500 1500 -100Z" transform="rotate(127.05882352941177 930 250)" fill="#d4f38a" opacity=".07"/><path d="M930 250 1500 1500 1500 -100Z" transform="rotate(148.23529411764707 930 250)" fill="#d4f38a" opacity=".07"/><path d="M930 250 1500 1500 1500 -100Z" transform="rotate(169.41176470588235 930 250)" fill="#d4f38a" opacity=".07"/><path d="M930 250 1500 1500 1500 -100Z" transform="rotate(190.58823529411765 930 250)" fill="#d4f38a" opacity=".07"/><path d="M930 250 1500 1500 1500 -100Z" transform="rotate(211.76470588235293 930 250)" fill="#d4f38a" opacity=".07"/></g>
<path d="M0 405 210 265l196 140 159-192 166 192 182-164 203 164 191-152 193 152v95H0Z" fill="#174d49" opacity=".26"/>
<path d="M0 500V394h124v106Z" fill="#174d49" opacity=".46"/><rect x="13" y="412" width="5" height="8" rx="1" fill="#d4f38a" opacity=".7"/><rect x="34" y="412" width="5" height="8" rx="1" fill="#d4f38a" opacity=".7"/><rect x="55" y="412" width="5" height="8" rx="1" fill="#d4f38a" opacity=".7"/><rect x="76" y="412" width="5" height="8" rx="1" fill="#d4f38a" opacity=".7"/><rect x="97" y="412" width="5" height="8" rx="1" fill="#d4f38a" opacity=".7"/><path d="M133 500V405h125v95Z" fill="#174d49" opacity=".46"/><rect x="146" y="423" width="5" height="8" rx="1" fill="#d4f38a" opacity=".7"/><rect x="167" y="423" width="5" height="8" rx="1" fill="#d4f38a" opacity=".7"/><rect x="188" y="423" width="5" height="8" rx="1" fill="#d4f38a" opacity=".7"/><rect x="209" y="423" width="5" height="8" rx="1" fill="#d4f38a" opacity=".7"/><rect x="230" y="423" width="5" height="8" rx="1" fill="#d4f38a" opacity=".7"/><rect x="251" y="423" width="5" height="8" rx="1" fill="#d4f38a" opacity=".7"/><path d="M267 500V403h133v97Z" fill="#174d49" opacity=".46"/><rect x="280" y="421" width="5" height="8" rx="1" fill="#d4f38a" opacity=".7"/><rect x="301" y="421" width="5" height="8" rx="1" fill="#d4f38a" opacity=".7"/><rect x="322" y="421" width="5" height="8" rx="1" fill="#d4f38a" opacity=".7"/><rect x="343" y="421" width="5" height="8" rx="1" fill="#d4f38a" opacity=".7"/><rect x="364" y="421" width="5" height="8" rx="1" fill="#d4f38a" opacity=".7"/><rect x="385" y="421" width="5" height="8" rx="1" fill="#d4f38a" opacity=".7"/><path d="M409 500V442h104v58Z" fill="#174d49" opacity=".46"/><rect x="422" y="460" width="5" height="8" rx="1" fill="#d4f38a" opacity=".7"/><rect x="443" y="460" width="5" height="8" rx="1" fill="#d4f38a" opacity=".7"/><rect x="464" y="460" width="5" height="8" rx="1" fill="#d4f38a" opacity=".7"/><rect x="485" y="460" width="5" height="8" rx="1" fill="#d4f38a" opacity=".7"/><rect x="506" y="460" width="5" height="8" rx="1" fill="#d4f38a" opacity=".7"/><path d="M522 500V423h58v77Z" fill="#174d49" opacity=".46"/><rect x="535" y="441" width="5" height="8" rx="1" fill="#d4f38a" opacity=".7"/><rect x="556" y="441" width="5" height="8" rx="1" fill="#d4f38a" opacity=".7"/><path d="M589 500V422h62v78Z" fill="#174d49" opacity=".46"/><rect x="602" y="440" width="5" height="8" rx="1" fill="#d4f38a" opacity=".7"/><rect x="623" y="440" width="5" height="8" rx="1" fill="#d4f38a" opacity=".7"/><rect x="644" y="440" width="5" height="8" rx="1" fill="#d4f38a" opacity=".7"/><path d="M660 500V369h94v131Z" fill="#174d49" opacity=".46"/><rect x="673" y="387" width="5" height="8" rx="1" fill="#d4f38a" opacity=".7"/><rect x="694" y="387" width="5" height="8" rx="1" fill="#d4f38a" opacity=".7"/><rect x="715" y="387" width="5" height="8" rx="1" fill="#d4f38a" opacity=".7"/><rect x="736" y="387" width="5" height="8" rx="1" fill="#d4f38a" opacity=".7"/><path d="M763 500V335h71v165Z" fill="#174d49" opacity=".46"/><rect x="776" y="353" width="5" height="8" rx="1" fill="#d4f38a" opacity=".7"/><rect x="797" y="353" width="5" height="8" rx="1" fill="#d4f38a" opacity=".7"/><rect x="818" y="353" width="5" height="8" rx="1" fill="#d4f38a" opacity=".7"/><path d="M843 500V310h73v190Z" fill="#174d49" opacity=".46"/><rect x="856" y="328" width="5" height="8" rx="1" fill="#d4f38a" opacity=".7"/><rect x="877" y="328" width="5" height="8" rx="1" fill="#d4f38a" opacity=".7"/><rect x="898" y="328" width="5" height="8" rx="1" fill="#d4f38a" opacity=".7"/><path d="M925 500V404h89v96Z" fill="#174d49" opacity=".46"/><rect x="938" y="422" width="5" height="8" rx="1" fill="#d4f38a" opacity=".7"/><rect x="959" y="422" width="5" height="8" rx="1" fill="#d4f38a" opacity=".7"/><rect x="980" y="422" width="5" height="8" rx="1" fill="#d4f38a" opacity=".7"/><rect x="1001" y="422" width="5" height="8" rx="1" fill="#d4f38a" opacity=".7"/><path d="M1023 500V435h124v65Z" fill="#174d49" opacity=".46"/><rect x="1036" y="453" width="5" height="8" rx="1" fill="#d4f38a" opacity=".7"/><rect x="1057" y="453" width="5" height="8" rx="1" fill="#d4f38a" opacity=".7"/><rect x="1078" y="453" width="5" height="8" rx="1" fill="#d4f38a" opacity=".7"/><rect x="1099" y="453" width="5" height="8" rx="1" fill="#d4f38a" opacity=".7"/><rect x="1120" y="453" width="5" height="8" rx="1" fill="#d4f38a" opacity=".7"/><path d="M1156 500V301h125v199Z" fill="#174d49" opacity=".46"/><rect x="1169" y="319" width="5" height="8" rx="1" fill="#d4f38a" opacity=".7"/><rect x="1190" y="319" width="5" height="8" rx="1" fill="#d4f38a" opacity=".7"/><rect x="1211" y="319" width="5" height="8" rx="1" fill="#d4f38a" opacity=".7"/><rect x="1232" y="319" width="5" height="8" rx="1" fill="#d4f38a" opacity=".7"/><rect x="1253" y="319" width="5" height="8" rx="1" fill="#d4f38a" opacity=".7"/><rect x="1274" y="319" width="5" height="8" rx="1" fill="#d4f38a" opacity=".7"/><path d="M1290 500V444h133v56Z" fill="#174d49" opacity=".46"/><rect x="1303" y="462" width="5" height="8" rx="1" fill="#d4f38a" opacity=".7"/><rect x="1324" y="462" width="5" height="8" rx="1" fill="#d4f38a" opacity=".7"/><rect x="1345" y="462" width="5" height="8" rx="1" fill="#d4f38a" opacity=".7"/><rect x="1366" y="462" width="5" height="8" rx="1" fill="#d4f38a" opacity=".7"/><rect x="1387" y="462" width="5" height="8" rx="1" fill="#d4f38a" opacity=".7"/><rect x="1408" y="462" width="5" height="8" rx="1" fill="#d4f38a" opacity=".7"/><path d="M1432 500V338h104v162Z" fill="#174d49" opacity=".46"/><rect x="1445" y="356" width="5" height="8" rx="1" fill="#d4f38a" opacity=".7"/><rect x="1466" y="356" width="5" height="8" rx="1" fill="#d4f38a" opacity=".7"/><rect x="1487" y="356" width="5" height="8" rx="1" fill="#d4f38a" opacity=".7"/><rect x="1508" y="356" width="5" height="8" rx="1" fill="#d4f38a" opacity=".7"/><rect x="1529" y="356" width="5" height="8" rx="1" fill="#d4f38a" opacity=".7"/>
<path d="M0 478q280-43 530 0t500 0 470 0v22H0Z" fill="#174d49" opacity=".82"/>
<g transform="translate(0 0)"><path d="M834 145q-9-112 96-120 106 7 97 120l-26 98q-73 58-141 0Z" fill="#397c4a" stroke="#153c36" stroke-width="12"/><path d="M858 142q31-27 61 3l-5 17h-55Zm83 3q31-30 62-3l-2 20h-55Z" fill="#f4f2dc"/><path d="M882 201q50 41 100 0l-10 28q-40 26-80 0Z" fill="#172f2b"/><path d="M780 257q152-90 300 0l87 243H692Z" fill="#4aa65d" stroke="#153c36" stroke-width="12"/></g>
<g fill="#fff" opacity=".8"><circle cx="174" cy="86" r="3"/><circle cx="328" cy="176" r="2"/><circle cx="1280" cy="72" r="3"/><circle cx="1194" cy="296" r="2"/></g>
<path d="M0 0h340L180 500H0Zm1500 0h-210l138 500h72Z" fill="#fff" opacity=".10"/>
</svg>